<svg xmlns="http://www.w3.org/2000/svg" xmlns:xlink="http://www.w3.org/1999/xlink" version="1.1" x="0px" y="0px" viewBox="-252 358.9 89.3 156.25" style="enable-background:new -252 358.9 89.3 125;" xml:space="preserve"><g><path d="M-214.5,435.9c-1.8-2-3.9-3.5-6.4-4.4c-2.5-0.8-3.8-0.4-5.2,1.8c-1.3,2.1-2.1,4.6-2.2,7.2c-0.1,2.4,1.8,3.8,3.9,3.1   c0.5-0.3,1-0.6,1.4-1c1-1,2.2-1.4,3.5-1.4c1,0,2.1-0.1,3-0.3c0.8-0.2,1.6-0.6,2.2-1.1c0.9-0.6,1-1.6,0.5-2.6   C-213.8,436.7-214.1,436.3-214.5,435.9z"/><path d="M-221.1,429.3c1,0,1.7-0.6,2.1-1.5c0.8-1.5,1-3.1,0.4-5c-0.1-0.2-0.2-0.6-0.5-1c-1.1-1.8-3.1-1.9-4.2-0.1   c-1.1,2-1.3,4.1-0.1,6.1C-222.9,428.8-222.2,429.3-221.1,429.3z"/><path d="M-227.6,431c1.1,0.3,1.9-0.2,2.4-1.2s0.4-2.1,0-3.2c-0.1-0.3-0.2-0.6-0.3-0.9c-0.7-1.4-1.6-2.4-3.1-2.8   c-1.3-0.3-2.2,0.2-2.7,1.4C-232.2,426.8-230.2,430.4-227.6,431z"/><path d="M-212.9,425.8c-1-1.2-2.5-1.3-3.5-0.1c-0.5,0.5-0.9,1.2-1,1.9c-0.5,1.5-0.3,3,0.7,4.3c0.9,1.2,2.5,1.4,3.6,0.3   c1.2-1.3,1.7-3.8,0.9-5.5C-212.5,426.4-212.7,426.1-212.9,425.8z"/><path d="M-228.5,434c-0.9-1.9-2.4-3.2-4.1-3.4c-1.7-0.2-3,1-2.7,2.7c0.3,2,1.6,3.3,3.4,4c1,0.4,2.1,0.4,3-0.5   C-228.1,435.9-228.2,434.9-228.5,434z"/><path d="M-190.2,415.4c-1.8-1.9-3.2-2.1-5.5-0.7c-2.2,1.3-3.9,3.2-5.1,5.5c-1.1,2.1-0.1,4.2,2.1,4.6c0.6-0.1,1.2-0.1,1.7-0.3   c1.3-0.5,2.6-0.3,3.8,0.3c0.9,0.4,1.9,0.8,2.8,1.1c0.8,0.2,1.7,0.2,2.5,0c1.1-0.2,1.6-1,1.6-2.1c0.1-0.5,0-1.1-0.1-1.6   C-187.2,419.6-188.4,417.3-190.2,415.4z"/><path d="M-189.5,413.3c0.9,0.5,1.8,0.2,2.6-0.4c1.4-1,2.3-2.4,2.6-4.3c0-0.2,0-0.6,0-1.1c-0.2-2.1-2-3.1-3.7-1.9   c-1.9,1.3-3,3.1-2.8,5.4C-190.8,412-190.4,412.9-189.5,413.3z"/><path d="M-193.4,412c0.9-0.7,1.3-1.7,1.4-2.9c0-0.3,0.1-0.6,0.1-1c0-1.5-0.3-2.9-1.5-3.9c-1-0.8-2.1-0.8-3,0.1   c-1.9,1.9-1.8,5.9,0.3,7.6C-195.2,412.7-194.3,412.7-193.4,412z"/><path d="M-180.6,413.8c-0.4-1.5-1.7-2.3-3.1-1.7c-0.6,0.3-1.3,0.7-1.8,1.2c-1.1,1.1-1.6,2.6-1.3,4.2c0.3,1.5,1.7,2.3,3,1.9   c1.7-0.6,3.2-2.7,3.3-4.5C-180.5,414.5-180.5,414.2-180.6,413.8z"/><path d="M-200,416.6c1.1-0.4,1.5-1.4,1.6-2.3c0.2-2.2-0.5-4-2-5c-1.4-1-3.1-0.4-3.7,1.2c-0.7,2-0.1,3.6,1.2,5.1   C-202.1,416.5-201.2,417-200,416.6z"/></g><text x="-252" y="498.9" fill="#000000" font-size="5px" font-weight="bold" font-family="'Helvetica Neue', Helvetica, Arial-Unicode, Arial, Sans-serif">Created by Peter Hacke</text><text x="-252" y="503.9" fill="#000000" font-size="5px" font-weight="bold" font-family="'Helvetica Neue', Helvetica, Arial-Unicode, Arial, Sans-serif">from the Noun Project</text></svg>